<?xml version="1.0" standalone="no"?>
<!DOCTYPE svg PUBLIC "-//W3C//DTD SVG 20010904//EN"
 "http://www.w3.org/TR/2001/REC-SVG-20010904/DTD/svg10.dtd">
<svg version="1.0" xmlns="http://www.w3.org/2000/svg"
 width="352.000000pt" height="352.000000pt" viewBox="0 0 352.000000 352.000000"
 preserveAspectRatio="xMidYMid meet">
<metadata>
Created by potrace 1.11, written by Peter Selinger 2001-2013
</metadata>
<g transform="translate(0.000000,352.000000) scale(0.100000,-0.100000)"
fill="#000000" stroke="none">
<path d="M1033 2633 c-185 -216 -330 -406 -402 -525 l-22 -37 54 19 c88 31
178 42 252 30 70 -11 152 -36 172 -52 8 -6 34 22 89 94 87 116 164 208 238
285 31 33 47 56 41 62 -40 37 -300 251 -306 251 -4 0 -56 -57 -116 -127z"/>
<path d="M2453 2658 c-208 -243 -383 -471 -429 -560 l-14 -28 50 20 c117 46
262 44 381 -4 l58 -23 58 76 c86 115 171 218 242 294 35 37 62 69 60 71 -38
36 -306 256 -311 256 -4 0 -47 -46 -95 -102z"/>
<path d="M779 1989 c-169 -24 -297 -148 -329 -317 -33 -168 46 -348 183 -416
28 -14 62 -26 76 -26 l26 0 0 103 c0 85 4 110 23 152 73 159 206 247 392 259
36 2 64 8 63 13 -48 163 -232 262 -434 232z"/>
<path d="M2175 1988 c-86 -11 -174 -58 -234 -123 -143 -158 -131 -428 27 -566
42 -37 107 -68 142 -69 25 0 25 0 21 85 -4 106 16 176 76 256 75 102 198 165
333 171 77 3 81 8 54 61 -73 141 -232 211 -419 185z"/>
<path d="M1280 1926 c0 -3 9 -20 19 -38 45 -76 71 -182 71 -285 0 -158 -46
-277 -147 -377 -152 -151 -398 -190 -598 -96 -33 16 -61 27 -62 26 -2 -2 48
-53 110 -113 199 -193 299 -245 472 -246 110 -1 166 12 270 67 173 90 299 316
281 504 -13 131 -88 267 -215 392 -72 71 -201 177 -201 166z"/>
<path d="M2680 1926 c0 -4 14 -33 30 -66 42 -84 60 -160 60 -258 0 -153 -41
-260 -140 -365 -150 -160 -400 -204 -610 -106 l-65 30 85 -87 c182 -185 297
-257 443 -275 246 -32 488 115 578 351 29 76 40 176 28 251 -20 127 -116 280
-251 399 -90 79 -158 133 -158 126z"/>
</g>
</svg>
